<?xml version="1.0" encoding="utf-8"?>
<!-- Generator: Adobe Illustrator 21.0.0, SVG Export Plug-In . SVG Version: 6.00 Build 0)  -->
<svg version="1.1" id="Layer_1" xmlns="http://www.w3.org/2000/svg" xmlns:xlink="http://www.w3.org/1999/xlink" x="0px" y="0px"
	 viewBox="0 0 1024 768" style="enable-background:new 0 0 1024 768;" xml:space="preserve">
<style type="text/css">
	.st0{opacity:0.57;}
	.st1{clip-path:url(#SVGID_2_);fill:#87A93E;}
	.st2{fill:#F15A26;}
	.st3{fill:#0D71BA;}
	.st0:hover{
	fill:red;}
</style>
<g class="st0">
	<g>
		<defs>
			<path id="SVGID_1_" d="M943.3,56C814,167.2,627.6,226.9,627.6,226.9C644.7,339.8,577.7,361,577.7,361
				c-62.6-68.5-124.3-28.8-147.4-9.1c-6.2,5.3-9.6,9.1-9.6,9.1c-66.2-24.5-49.9-136.6-49.9-136.6C176.1,165.5,58.3,56,58.3,56
				C30.5,189.3,300.4,237.5,300.4,237.5c-107.1,4.1-212.6-61.3-212.6-61.3c-31.1,106.3,226.5,104,226.5,104
				c-62.2,20.5-174.2-5.1-174.2-5.1c25.4,89,189.7,45.1,189.7,45.1c-38.4,25.4-104.7,24.5-104.7,24.5c39.3,65.4,128.4,7.4,128.4,7.4
				c-9,24.5-49.9,36-49.9,36c30.3,40.1,90.8-14.7,90.8-14.7c-18,33.5-31.1,32.7-31.1,32.7c8.2,17.2,45.8,3.3,45.8,3.3
				c-10.6,60.5,43.3,85.9,43.3,85.9c146.4,45,146.4-90,146.4-90c33.5,11.4,37.6,0,37.6,0c-32.7-27-25.4-28.6-25.4-28.6l27.8,18
				c43.3,17.2,57.2-9,57.2-9c-54-18-47.4-35.2-47.4-35.2s4.1,22.9,66.2,25.4c62.2,2.5,58.9-31.1,58.9-31.1
				c-97.3-1.6-101.4-25.4-101.4-25.4c54,12.3,91.6,10.6,91.6,10.6c82.6,1.6,95.7-54.9,95.7-54.9c-151.3,33.4-170.1,5.8-170.1,5.8
				s-4.1-1.6,116.1-13.1s108-90.8,108-90.8c-153.8,76.1-213.5,58.9-213.5,58.9c144.8-39.3,199.6-78.5,199.6-78.5
				C956.3,109.1,943.3,56,943.3,56z"/>
		</defs>
		<clipPath id="SVGID_2_">
			<use xlink:href="#SVGID_1_"  style="overflow:visible;"/>
		</clipPath>
		<polygon class="st1" points="30.5,56.3 34.3,56 302.4,56 342.8,540.1 30.5,540.1 		"/>
		<polygon class="st1" points="423.7,56 464.1,540.1 342.8,540.1 302.4,56 		"/>
		<polygon class="st1" points="545.1,56 585.4,540.1 464.1,540.1 423.7,56 		"/>
		<polygon class="st1" points="956.3,512.3 623,540.1 585.4,540.1 545.1,56 956.3,56 		"/>
	</g>
</g>
<g>
	<path class="st2" d="M424.8,394.2c3.8-0.7,9.2-1.1,14.3-1.1c8,0,13.1,1.4,16.7,4.4c2.9,2.4,4.5,6.1,4.5,10.3
		c0,7.2-4.8,11.9-10.9,13.9v0.2c4.5,1.5,7.1,5.3,8.5,11c1.9,7.6,3.3,12.8,4.4,14.9h-7.7c-0.9-1.5-2.2-6.2-3.9-13
		c-1.7-7.5-4.8-10.3-11.6-10.6h-7v23.6h-7.4V394.2z M432.2,419h7.6c8,0,13-4.1,13-10.3c0-7-5.4-10.1-13.3-10.2
		c-3.6,0-6.2,0.3-7.4,0.6V419z"/>
	<path class="st3" d="M466.4,435.9c0.1,6.4,3.8,9.1,8,9.1c3,0,4.9-0.6,6.5-1.3l0.7,3.4c-1.5,0.8-4.1,1.6-7.8,1.6
		c-7.2,0-11.5-5.3-11.5-13.2c0-7.9,4.2-14.1,11-14.1c7.6,0,9.7,7.5,9.7,12.3c0,1-0.1,1.7-0.1,2.2H466.4z M478.9,432.5
		c0-3-1.1-7.7-5.9-7.7c-4.3,0-6.2,4.4-6.5,7.7H478.9z"/>
	<path class="st3" d="M488.7,448v-22.5h-3.3v-3.6h3.3v-1.2c0-3.7,0.7-7,2.7-9.1c1.6-1.7,3.7-2.4,5.7-2.4c1.5,0,2.8,0.4,3.6,0.8
		l-0.6,3.7c-0.6-0.3-1.5-0.6-2.7-0.6c-3.6,0-4.5,3.6-4.5,7.5v1.4h5.7v3.6h-5.7V448H488.7z"/>
	<path class="st3" d="M502.4,430.1c0-3.1,0-5.7-0.2-8.1h3.7l0.1,5.1h0.2c1.1-3.5,3.6-5.7,6.5-5.7c0.5,0,0.8,0.1,1.2,0.2v4.5
		c-0.4-0.1-0.9-0.2-1.5-0.2c-3,0-5.1,2.5-5.7,6.1c-0.1,0.6-0.2,1.4-0.2,2.2V448h-4.2V430.1z"/>
	<path class="st3" d="M520.1,435.9c0.1,6.4,3.8,9.1,8,9.1c3,0,4.9-0.6,6.5-1.3l0.7,3.4c-1.5,0.8-4.1,1.6-7.8,1.6
		c-7.2,0-11.5-5.3-11.5-13.2c0-7.9,4.2-14.1,11-14.1c7.6,0,9.7,7.5,9.7,12.3c0,1-0.1,1.7-0.1,2.2H520.1z M532.5,432.5
		c0-3-1.1-7.7-5.9-7.7c-4.3,0-6.2,4.4-6.5,7.7H532.5z"/>
	<path class="st3" d="M541.3,443.2c1.3,0.9,3.5,1.9,5.6,1.9c3.1,0,4.5-1.7,4.5-3.9c0-2.3-1.2-3.5-4.4-4.8c-4.2-1.7-6.2-4.3-6.2-7.4
		c0-4.2,3-7.7,8.1-7.7c2.4,0,4.4,0.8,5.8,1.6l-1.1,3.4c-0.9-0.6-2.6-1.5-4.8-1.5c-2.5,0-3.9,1.6-3.9,3.6c0,2.2,1.4,3.1,4.4,4.4
		c4.1,1.7,6.1,4,6.1,7.9c0,4.6-3.2,7.8-8.7,7.8c-2.6,0-4.9-0.7-6.6-1.8L541.3,443.2z"/>
	<path class="st3" d="M561.1,409.8h4.3V426h0.1c0.7-1.3,1.7-2.5,3-3.3c1.3-0.8,2.8-1.3,4.3-1.3c3.1,0,8.2,2.2,8.2,11.2V448h-4.3v-15
		c0-4.2-1.4-7.8-5.4-7.8c-2.8,0-4.9,2.2-5.7,4.7c-0.2,0.6-0.3,1.3-0.3,2.3V448h-4.3V409.8z"/>
</g>
</svg>
